<svg width="13" height="14" fill="none" xmlns="http://www.w3.org/2000/svg"><path fill-rule="evenodd" clip-rule="evenodd" d="M7.7927 8.2639c-1.432 1.432-3.7535 1.432-5.1855 0-1.4319-1.432-1.4319-3.7535 0-5.1855 1.432-1.4319 3.7536-1.4319 5.1855 0 1.4319 1.432 1.4319 3.7536 0 5.1855Zm.4404 1.383c-1.9603 1.4993-4.7759 1.3526-6.5687-.4402-1.9526-1.9526-1.9526-5.1184 0-7.071C3.617.183 6.783.183 8.7354 2.1356c1.7928 1.7927 1.9396 4.6081.4404 6.5683l3.5667 3.5667-.9428.9428-3.5666-3.5666Z" fill="#fff"/></svg>